<svg width="82" height="82" viewBox="0 0 82 82" fill="none" xmlns="http://www.w3.org/2000/svg">
<path d="M21.354 68.3332C16.4568 68.3332 12.2429 66.5679 8.71234 63.0374C5.18178 59.5068 3.4165 55.2929 3.4165 50.3957C3.4165 45.954 4.82588 42.0391 7.64463 38.6509C10.4634 35.2627 14.0936 33.227 18.5353 32.5436C19.6741 27.02 22.3505 22.5072 26.5644 19.0051C30.7783 15.503 35.6471 13.752 41.1707 13.752C47.6054 13.752 53.0009 16.0724 57.3571 20.7134C61.7134 25.3544 63.8915 30.9207 63.8915 37.4124V39.4624C67.9915 39.3485 71.4651 40.6724 74.3123 43.4342C77.1596 46.1961 78.5832 49.6839 78.5832 53.8978C78.5832 57.827 77.1596 61.2151 74.3123 64.0624C71.4651 66.9096 68.0769 68.3332 64.1478 68.3332H43.5623C42.1957 68.3332 40.9998 67.8207 39.9748 66.7957C38.9498 65.7707 38.4373 64.5749 38.4373 63.2082V41.1707L33.1415 46.4665C32.629 46.979 32.0311 47.2211 31.3478 47.1926C30.6644 47.1641 30.0665 46.8936 29.554 46.3811C29.0415 45.8686 28.7853 45.2565 28.7853 44.5447C28.7853 43.8329 29.0415 43.2207 29.554 42.7082L39.2061 33.0561C39.4908 32.7714 39.7755 32.5721 40.0603 32.4582C40.345 32.3443 40.6582 32.2874 40.9998 32.2874C41.3415 32.2874 41.6547 32.3443 41.9394 32.4582C42.2241 32.5721 42.5089 32.7714 42.7936 33.0561L52.5311 42.7936C53.0436 43.3061 53.2998 43.904 53.2998 44.5874C53.2998 45.2707 53.0436 45.8686 52.5311 46.3811C52.0186 46.8936 51.4064 47.1499 50.6946 47.1499C49.9828 47.1499 49.3707 46.8936 48.8582 46.3811L43.5623 41.1707V63.2082H64.1478C66.7103 63.2082 68.9026 62.2971 70.7248 60.4749C72.5471 58.6527 73.4582 56.4603 73.4582 53.8978C73.4582 51.3353 72.5471 49.1429 70.7248 47.3207C68.9026 45.4985 66.7103 44.5874 64.1478 44.5874H58.7665V37.4124C58.7665 32.3443 57.0439 27.9881 53.5988 24.3436C50.1537 20.6992 45.8971 18.877 40.829 18.877C35.761 18.877 31.4901 20.6992 28.0165 24.3436C24.5429 27.9881 22.8061 32.3443 22.8061 37.4124H21.1832C17.6526 37.4124 14.663 38.6509 12.2144 41.128C9.76581 43.6051 8.5415 46.6658 8.5415 50.3103C8.5415 53.8408 9.79428 56.8731 12.2998 59.4072C14.8054 61.9412 17.8235 63.2082 21.354 63.2082H30.7498C31.4901 63.2082 32.1023 63.4502 32.5863 63.9342C33.0703 64.4183 33.3123 65.0304 33.3123 65.7707C33.3123 66.511 33.0703 67.1231 32.5863 67.6072C32.1023 68.0912 31.4901 68.3332 30.7498 68.3332H21.354Z" fill="#787C84"/>
</svg>
